<svg xmlns="http://www.w3.org/2000/svg" width="1000" height="1000" stroke="#fff" stroke-linecap="round" stroke-linejoin="round" fill="#fff" fill-rule="evenodd"><path fill="none" stroke-width="50" d="M729.5 849.5v-700h240v700z"></path><g transform="matrix(-1 0 0 -1 727.9368 849.3515)" fill="none"><path d="M447.5261 85.8523c146.7765 53.2323 221.9308 213.8284 168.5089 360.0826S401.4431 667.076 254.6672 613.8433 32.7362 400.0152 86.1588 253.7621 300.7504 32.62 447.5261 85.8523z" stroke-width="50.0004"></path><g stroke-width="50"><path d="M598.3744 230.8151Q460.244 113.0282 382.9281 293.701M154.27 159.0218Q90.4333 328.6437 287.2606 339.2467m5.3202 10.6014c0-32.3025 26.0988-58.3082 58.5156-58.3082s58.517 26.0057 58.517 58.3082-26.0991 58.3077-58.517 58.3077-58.5156-26.0057-58.5156-58.3077zM307.119 619.959q176.0576-45.187 71.8778-211.9246"></path><path d="M0 0h696.8744v699.6951H0z"></path></g></g><g fill="none" stroke-width="50"><path d="M969.51 310.1629C916.4074 248.4548 837.6702 209.5 749.5 209.5c-6.7317 0-13.4084.2271-20.0228.674l.0228 578.6535c6.5916.4454 13.2683.6725 20 .6725 88.1702 0 166.9074-38.9548 220-100.6512z"></path><path d="M729.5 350.8099v297.3802c6.5459.8644 13.219 1.3099 20 1.3099 83.1 0 150-66.9 150-150s-66.9-150-150-150c-6.781 0-13.4541.4455-20 1.3099z"></path><path d="M729.5 477.1027v44.7946c5.3014 4.7332 12.3033 7.6027 20 7.6027 16.62 0 30-13.38 30-30s-13.38-30-30-30c-7.6967 0-14.6986 2.8695-20 7.6027z"></path></g></svg>